<?xml version="1.0" encoding="UTF-8"?>
<svg version="1.1" xmlns="http://www.w3.org/2000/svg" width="512" height="512">
<path d="M0 0 C0.89140529 -0.00709439 1.78281057 -0.01418877 2.70122814 -0.02149814 C5.67081262 -0.0390184 8.63907786 -0.02100374 11.60864258 -0.00291443 C13.74460443 -0.00805551 15.88056204 -0.01533822 18.01651001 -0.02459717 C23.80580513 -0.043095 29.59463908 -0.03018244 35.38391495 -0.01050687 C41.44735489 0.00589408 47.51076596 -0.00293529 53.57421875 -0.00802612 C63.75601557 -0.01254544 73.93762859 0.00331291 84.11938477 0.03126526 C95.88468231 0.06331627 107.64964837 0.06330079 119.41496944 0.04605049 C130.7408507 0.03017733 142.06661062 0.0369241 153.39248657 0.0539875 C158.2089054 0.06085345 163.02522684 0.05983017 167.84164429 0.05244255 C173.51512465 0.04477186 179.18822854 0.05693194 184.86164474 0.08429146 C186.94170387 0.09116807 189.02179821 0.09128106 191.10185623 0.08407593 C193.94543779 0.07536227 196.78786259 0.09136992 199.63134766 0.11352539 C200.86054821 0.10116424 200.86054821 0.10116424 202.11458111 0.08855337 C208.67444857 0.18262621 213.65175849 2.17200678 218.83154297 6.19313049 C224.22051041 12.3398227 227.63346587 19.49243196 231.1796875 26.79371643 C232.26375611 29.02496977 233.36527364 31.24693073 234.4699707 33.46803284 C235.16824753 34.88289881 235.86554993 36.29824621 236.56176758 37.71412659 C236.88978867 38.37866852 237.21780975 39.04321045 237.55577087 39.72789001 C239.81567383 44.39354296 239.81567383 44.39354296 239.81567383 46.62818909 C240.61674561 46.60724182 241.41781738 46.58629456 242.24316406 46.56471252 C245.91303692 46.48097508 249.58270799 46.42934541 253.25317383 46.37818909 C254.51323242 46.34467346 255.77329102 46.31115784 257.0715332 46.27662659 C266.0792286 46.18255144 272.64471121 47.10604287 279.62817383 53.00318909 C284.7200863 59.11348406 286.90449872 63.27955237 287.00854492 71.15602112 C287.03263931 72.81892685 287.03263931 72.81892685 287.05722046 74.51542664 C287.1019023 79.58816277 287.14274685 84.66077062 287.16577148 89.73365784 C287.17907027 92.4032268 287.2095547 95.07097702 287.24780273 97.74049377 C287.30279927 101.6017286 287.32448332 105.46192687 287.33911133 109.32350159 C287.3617807 110.50614594 287.38445007 111.68879028 287.4078064 112.90727234 C287.38867939 120.47420053 286.26494807 126.37130746 281.81567383 132.62818909 C276.44543974 137.73006011 271.31059016 140.75248289 263.81567383 140.62818909 C263.71766983 141.44838028 263.61966583 142.26857147 263.51869202 143.11361694 C262.59502243 150.83903889 261.66834395 158.56409264 260.73827457 166.28874683 C260.26021156 170.26017668 259.78331762 174.23173968 259.30908203 178.20362854 C258.85146897 182.03593428 258.39080256 185.86786167 257.92800713 189.69954491 C257.75188596 191.16225281 257.57686974 192.62509419 257.40297127 194.08806801 C257.15941996 196.13541493 256.9119622 198.18225422 256.66357422 200.22901917 C256.45372643 201.97775078 256.45372643 201.97775078 256.23963928 203.7618103 C255.81567383 206.62818909 255.81567383 206.62818909 254.81567383 209.62818909 C257.78567383 209.62818909 260.75567383 209.62818909 263.81567383 209.62818909 C261.59924244 230.340456 259.06945126 251.00716066 256.47291017 271.6744802 C255.91902851 276.08643561 255.36731951 280.49866276 254.81535339 284.91085815 C253.77571596 293.21873231 252.73420112 301.52636991 251.69196481 309.83391839 C250.50299807 319.31180705 249.31619571 328.78996636 248.12955058 338.26814592 C245.69395348 357.72178992 243.25571822 377.17510242 240.81567383 396.62818909 C237.84567383 396.62818909 234.87567383 396.62818909 231.81567383 396.62818909 C231.72433167 397.38620316 231.6329895 398.14421722 231.53887939 398.92520142 C230.65844469 406.22962561 229.77672279 413.53389294 228.89371109 420.83800602 C228.4402823 424.58903288 227.98727572 428.34010951 227.53540039 432.09132385 C226.57089038 440.09553315 225.59801989 448.09861836 224.61154938 456.10015297 C224.07465939 460.46923567 223.55565457 464.84001549 223.05012894 469.21283436 C222.7215228 472.035432 222.38177341 474.85662122 222.03978729 477.67762566 C221.80818175 479.61862388 221.59051122 481.56126924 221.37335205 483.50393677 C220.32202681 492.06450483 219.06874765 501.93268507 211.87817383 507.62818909 C211.22977539 508.16443909 210.58137695 508.70068909 209.91333008 509.25318909 C204.89923434 512.53989616 200.36790273 512.91904315 194.48564148 512.89561462 C193.64988565 512.90014574 192.81412982 512.90467685 191.95304805 512.90934527 C189.15418928 512.92199961 186.35552483 512.92036823 183.55664062 512.91871643 C181.54920196 512.92470105 179.5417656 512.93150644 177.53433228 512.93907166 C172.08177346 512.95674602 166.62927741 512.96142766 161.17669272 512.96270323 C156.62406781 512.96460252 152.07145751 512.97196045 147.51883823 512.97904742 C136.77671144 512.99533458 126.03461818 513.00021609 115.29248047 512.99879456 C104.21402381 512.99759315 93.13576198 513.01869419 82.05735463 513.05028188 C72.54382241 513.07644035 63.03035383 513.08716202 53.51678592 513.08588374 C47.83573835 513.08537396 42.15486389 513.09106583 36.47385216 513.11223984 C31.12958074 513.13161475 25.78564769 513.13175162 20.44136429 513.11720657 C18.4822331 513.11511644 16.52308078 513.11983155 14.56398582 513.13192749 C11.88448 513.1473971 9.20613842 513.13806071 6.5266571 513.12266541 C5.75572603 513.13295253 4.98479496 513.14323966 4.19050235 513.15383852 C-2.32317363 513.07142449 -7.2718095 510.89634366 -12.39135742 506.90943909 C-21.50422585 496.79881134 -21.30994905 481.29398665 -22.88354492 468.34693909 C-23.12530308 466.40061898 -23.36764826 464.4543717 -23.61054993 462.50819397 C-24.11499486 458.45433376 -24.61463348 454.39992242 -25.11035156 450.34498596 C-25.74576985 445.14789451 -26.38986872 439.95192681 -27.03709698 434.75629425 C-27.53598001 430.74861831 -28.03207511 426.74060167 -28.52713966 422.73245239 C-28.76392094 420.81543371 -29.00116013 418.89847153 -29.23886681 416.98156738 C-29.56920984 414.31134879 -29.89621964 411.64074411 -30.22216797 408.96998596 C-30.32031296 408.18035461 -30.41845795 407.39072327 -30.51957703 406.5771637 C-30.92582187 403.22202652 -31.18432617 400.01449887 -31.18432617 396.62818909 C-34.15432617 396.62818909 -37.12432617 396.62818909 -40.18432617 396.62818909 C-45.48633726 355.83886123 -50.66871671 315.03455774 -55.78631592 274.22169495 C-56.42725031 269.11052052 -57.06961784 263.99952935 -57.7131958 258.88868713 C-58.48096438 252.7905045 -59.24561527 246.69193881 -60.00787544 240.59306526 C-60.29275579 238.3175464 -60.57867396 236.0421572 -60.86567497 233.76690483 C-61.26066816 230.63369857 -61.65182072 227.50003601 -62.04199219 224.3662262 C-62.21717597 222.98701492 -62.21717597 222.98701492 -62.39589882 221.5799408 C-62.89109399 217.57220931 -63.33713282 213.6762427 -63.18432617 209.62818909 C-60.54432617 209.29818909 -57.90432617 208.96818909 -55.18432617 208.62818909 C-55.28455078 207.83527466 -55.38477539 207.04236023 -55.48803711 206.22541809 C-56.43233862 198.75116991 -57.37426805 191.27662843 -58.3135376 183.80174637 C-58.79650255 179.9588968 -59.28038235 176.11616706 -59.76635742 172.2736969 C-60.23535616 168.56518303 -60.70194583 164.85637329 -61.16687012 161.1473465 C-61.34462809 159.73267067 -61.52325235 158.31810341 -61.70275879 156.90364838 C-61.95411926 154.92181903 -62.20210869 152.93956302 -62.44995117 150.95729065 C-62.59207031 149.82921997 -62.73418945 148.70114929 -62.88061523 147.53889465 C-63.18432617 144.62818909 -63.18432617 144.62818909 -63.18432617 140.62818909 C-64.33932617 140.56631409 -65.49432617 140.50443909 -66.68432617 140.44068909 C-73.6608862 139.52855933 -78.38473019 135.99422279 -82.62182617 130.50318909 C-85.61081756 126.31697227 -86.3112243 123.0985958 -86.34545898 117.98268127 C-86.3598703 116.24507538 -86.3598703 116.24507538 -86.37457275 114.47236633 C-86.37882263 113.21925659 -86.38307251 111.96614685 -86.38745117 110.67506409 C-86.39315125 109.38634399 -86.39885132 108.0976239 -86.40472412 106.76985168 C-86.41522533 104.03952135 -86.42107322 101.30922036 -86.42456055 98.57887268 C-86.43003262 95.09427857 -86.45403616 91.6100777 -86.4825325 88.12560654 C-86.50573646 84.78793379 -86.50761408 81.45031326 -86.51245117 78.11256409 C-86.52479797 76.86755127 -86.53714478 75.62253845 -86.54986572 74.33979797 C-86.52710402 65.45830362 -85.36478903 58.9573135 -79.09008789 52.3205719 C-71.60953253 45.67757808 -61.98361264 46.1258395 -52.55932617 46.37818909 C-50.62379883 46.4052594 -50.62379883 46.4052594 -48.64916992 46.43287659 C-45.49342919 46.4796283 -42.33928517 46.54514704 -39.18432617 46.62818909 C-38.92240479 45.78200012 -38.6604834 44.93581116 -38.390625 44.0639801 C-37.12472515 40.45843293 -35.57708437 37.07267457 -33.88354492 33.65553284 C-33.56529251 33.00999954 -33.2470401 32.36446625 -32.91914368 31.69937134 C-32.24806468 30.34278407 -31.57478512 28.98728336 -30.89941406 27.63282776 C-29.87545658 25.57299216 -28.86668372 23.50615986 -27.8581543 21.43873596 C-27.20087311 20.11471018 -26.54269927 18.79112708 -25.88354492 17.46803284 C-25.43950569 16.5506559 -25.43950569 16.5506559 -24.98649597 15.61474609 C-19.78297121 5.31545791 -11.34238453 -0.16382036 0 0 Z " fill="#B77B65" transform="translate(156.184326171875,-0.6281890869140625)"/>
<path d="M0 0 C0.89140529 -0.00709439 1.78281057 -0.01418877 2.70122814 -0.02149814 C5.67081262 -0.0390184 8.63907786 -0.02100374 11.60864258 -0.00291443 C13.74460443 -0.00805551 15.88056204 -0.01533822 18.01651001 -0.02459717 C23.80580513 -0.043095 29.59463908 -0.03018244 35.38391495 -0.01050687 C41.44735489 0.00589408 47.51076596 -0.00293529 53.57421875 -0.00802612 C63.75601557 -0.01254544 73.93762859 0.00331291 84.11938477 0.03126526 C95.88468231 0.06331627 107.64964837 0.06330079 119.41496944 0.04605049 C130.7408507 0.03017733 142.06661062 0.0369241 153.39248657 0.0539875 C158.2089054 0.06085345 163.02522684 0.05983017 167.84164429 0.05244255 C173.51512465 0.04477186 179.18822854 0.05693194 184.86164474 0.08429146 C186.94170387 0.09116807 189.02179821 0.09128106 191.10185623 0.08407593 C193.94543779 0.07536227 196.78786259 0.09136992 199.63134766 0.11352539 C200.86054821 0.10116424 200.86054821 0.10116424 202.11458111 0.08855337 C208.67444857 0.18262621 213.65175849 2.17200678 218.83154297 6.19313049 C224.22051041 12.3398227 227.63346587 19.49243196 231.1796875 26.79371643 C232.26375611 29.02496977 233.36527364 31.24693073 234.4699707 33.46803284 C235.16824753 34.88289881 235.86554993 36.29824621 236.56176758 37.71412659 C236.88978867 38.37866852 237.21780975 39.04321045 237.55577087 39.72789001 C239.81567383 44.39354296 239.81567383 44.39354296 239.81567383 46.62818909 C240.61674561 46.60724182 241.41781738 46.58629456 242.24316406 46.56471252 C245.91303692 46.48097508 249.58270799 46.42934541 253.25317383 46.37818909 C254.51323242 46.34467346 255.77329102 46.31115784 257.0715332 46.27662659 C266.0792286 46.18255144 272.64471121 47.10604287 279.62817383 53.00318909 C284.7200863 59.11348406 286.90449872 63.27955237 287.00854492 71.15602112 C287.03263931 72.81892685 287.03263931 72.81892685 287.05722046 74.51542664 C287.1019023 79.58816277 287.14274685 84.66077062 287.16577148 89.73365784 C287.17907027 92.4032268 287.2095547 95.07097702 287.24780273 97.74049377 C287.30279927 101.6017286 287.32448332 105.46192687 287.33911133 109.32350159 C287.3617807 110.50614594 287.38445007 111.68879028 287.4078064 112.90727234 C287.38867939 120.47420053 286.26494807 126.37130746 281.81567383 132.62818909 C276.23569415 137.91260015 270.75510169 140.87329934 262.96531391 140.8882513 C261.78762135 140.8953169 260.60992879 140.90238249 259.39654857 140.90966219 C258.1066844 140.9072471 256.81682023 140.90483202 255.48786926 140.90234375 C254.10062025 140.90679689 252.71337379 140.91211118 251.32613105 140.91821247 C247.51438394 140.93239408 243.70271837 140.93405574 239.89094865 140.93361557 C235.77967859 140.93526365 231.66844213 140.94833005 227.55718994 140.95980835 C218.56743235 140.98265876 209.57769836 140.99057909 200.58791566 140.99563479 C194.97371904 140.99889193 189.35952928 141.00541454 183.74533653 141.01263618 C168.1985957 141.03220259 152.65186124 141.04860642 137.10510731 141.05151272 C136.11021354 141.05170029 135.11531977 141.05188786 134.09027771 141.05208111 C132.07341429 141.05244736 130.05655086 141.05281106 128.03968743 141.05317222 C127.03852417 141.05335503 126.03736091 141.05353785 125.00585938 141.0537262 C123.50227953 141.05399702 123.50227953 141.05399702 121.96832433 141.05427331 C105.72819059 141.05781451 89.48818949 141.08483331 73.24810175 141.12222409 C56.57116505 141.16031308 39.89429415 141.17967024 23.21731299 141.17997223 C13.85520038 141.18055669 4.49324596 141.18904101 -4.86882591 141.21796989 C-12.84131274 141.24249175 -20.81358367 141.24976129 -28.78609803 141.23472237 C-32.85223967 141.22755658 -36.91795507 141.22839622 -40.98404884 141.25113297 C-44.710761 141.27177187 -48.43672057 141.26907772 -52.16342501 141.24825812 C-54.1411384 141.24312862 -56.11886921 141.26250516 -58.09648389 141.28291982 C-66.63839213 141.20265626 -73.71611272 139.81128702 -80.12197179 133.81418413 C-84.61877776 128.96151264 -86.42881392 124.40810127 -86.45898438 117.75563049 C-86.46851639 116.59737762 -86.4780484 115.43912476 -86.48786926 114.24577332 C-86.48695786 113.00298615 -86.48604645 111.76019897 -86.48510742 110.47975159 C-86.48939255 109.19386139 -86.49367767 107.90797119 -86.49809265 106.58311462 C-86.50553908 103.864699 -86.50527549 101.14641327 -86.5 98.42799377 C-86.49421261 94.95911538 -86.51112561 91.49077219 -86.53434467 88.02198219 C-86.55269676 84.69538376 -86.54889516 81.36890027 -86.54760742 78.04225159 C-86.56142204 76.18414352 -86.56142204 76.18414352 -86.57551575 74.28849792 C-86.52817875 65.43820077 -85.34223615 58.93345935 -79.09008789 52.3205719 C-71.60953253 45.67757808 -61.98361264 46.1258395 -52.55932617 46.37818909 C-50.62379883 46.4052594 -50.62379883 46.4052594 -48.64916992 46.43287659 C-45.49342919 46.4796283 -42.33928517 46.54514704 -39.18432617 46.62818909 C-38.92240479 45.78200012 -38.6604834 44.93581116 -38.390625 44.0639801 C-37.12472515 40.45843293 -35.57708437 37.07267457 -33.88354492 33.65553284 C-33.56529251 33.00999954 -33.2470401 32.36446625 -32.91914368 31.69937134 C-32.24806468 30.34278407 -31.57478512 28.98728336 -30.89941406 27.63282776 C-29.87545658 25.57299216 -28.86668372 23.50615986 -27.8581543 21.43873596 C-27.20087311 20.11471018 -26.54269927 18.79112708 -25.88354492 17.46803284 C-25.43950569 16.5506559 -25.43950569 16.5506559 -24.98649597 15.61474609 C-19.78297121 5.31545791 -11.34238453 -0.16382036 0 0 Z " fill="#7B524E" transform="translate(156.184326171875,-0.6281890869140625)"/>
<path d="M0 0 C86.79 0 173.58 0 263 0 C250.23398606 105.319615 250.23398606 105.319615 243.0625 111 C242.41410156 111.53625 241.76570312 112.0725 241.09765625 112.625 C236.08356051 115.91170708 231.5522289 116.29085406 225.66996765 116.26742554 C224.4163339 116.27422221 224.4163339 116.27422221 223.13737422 116.28115618 C220.33851545 116.29381052 217.539851 116.29217914 214.7409668 116.29052734 C212.73352813 116.29651196 210.72609178 116.30331735 208.71865845 116.31088257 C203.26609963 116.32855694 197.81360359 116.33323857 192.3610189 116.33451414 C187.80839398 116.33641344 183.25578368 116.34377136 178.7031644 116.35085833 C167.96103761 116.36714549 157.21894435 116.372027 146.47680664 116.37060547 C135.39834999 116.36940406 124.32008816 116.3905051 113.2416808 116.4220928 C103.72814858 116.44825126 94.21468 116.45897294 84.70111209 116.45769465 C79.02006452 116.45718487 73.33919006 116.46287675 67.65817833 116.48405075 C62.31390691 116.50342566 56.96997387 116.50356254 51.62569046 116.48901749 C49.66655928 116.48692735 47.70740695 116.49164246 45.748312 116.5037384 C43.06880617 116.51920801 40.39046459 116.50987162 37.71098328 116.49447632 C36.94005221 116.50476344 36.16912114 116.51505057 35.37482852 116.52564943 C28.86115255 116.44323541 23.91251667 114.26815458 18.79296875 110.28125 C9.68010032 100.17062226 9.87437712 84.66579756 8.30078125 71.71875 C8.0590231 69.77242989 7.81667791 67.82618261 7.57377625 65.88000488 C7.06933131 61.82614467 6.56969269 57.77173334 6.07397461 53.71679688 C5.43855633 48.51970542 4.79445745 43.32373772 4.14722919 38.12810516 C3.64834616 34.12042922 3.15225107 30.11241258 2.65718651 26.10426331 C2.42040523 24.18724463 2.18316605 22.27028245 1.94545937 20.3533783 C1.61511633 17.6831597 1.28810653 15.01255503 0.9621582 12.34179688 C0.86401321 11.55216553 0.76586823 10.76253418 0.66474915 9.94897461 C0.25850431 6.59383743 0 3.38630979 0 0 Z " fill="#F8DBC8" transform="translate(125,396)"/>
<path d="M0 0 C0.89140529 -0.00709439 1.78281057 -0.01418877 2.70122814 -0.02149814 C5.67081262 -0.0390184 8.63907786 -0.02100374 11.60864258 -0.00291443 C13.74460443 -0.00805551 15.88056204 -0.01533822 18.01651001 -0.02459717 C23.80580513 -0.043095 29.59463908 -0.03018244 35.38391495 -0.01050687 C41.44735489 0.00589408 47.51076596 -0.00293529 53.57421875 -0.00802612 C63.75601557 -0.01254544 73.93762859 0.00331291 84.11938477 0.03126526 C95.88468231 0.06331627 107.64964837 0.06330079 119.41496944 0.04605049 C130.7408507 0.03017733 142.06661062 0.0369241 153.39248657 0.0539875 C158.2089054 0.06085345 163.02522684 0.05983017 167.84164429 0.05244255 C173.51512465 0.04477186 179.18822854 0.05693194 184.86164474 0.08429146 C186.94170387 0.09116807 189.02179821 0.09128106 191.10185623 0.08407593 C193.94543779 0.07536227 196.78786259 0.09136992 199.63134766 0.11352539 C200.4508147 0.10528462 201.27028173 0.09704386 202.11458111 0.08855337 C208.67444857 0.18262621 213.65175849 2.17200678 218.83154297 6.19313049 C224.22051041 12.3398227 227.63346587 19.49243196 231.1796875 26.79371643 C232.26375611 29.02496977 233.36527364 31.24693073 234.4699707 33.46803284 C235.16824753 34.88289881 235.86554993 36.29824621 236.56176758 37.71412659 C236.88978867 38.37866852 237.21780975 39.04321045 237.55577087 39.72789001 C239.81567383 44.39354296 239.81567383 44.39354296 239.81567383 46.62818909 C240.61674561 46.60724182 241.41781738 46.58629456 242.24316406 46.56471252 C245.91303692 46.48097508 249.58270799 46.42934541 253.25317383 46.37818909 C254.51323242 46.34467346 255.77329102 46.31115784 257.0715332 46.27662659 C266.0792286 46.18255144 272.64471121 47.10604287 279.62817383 53.00318909 C284.7200863 59.11348406 286.90449872 63.27955237 287.00854492 71.15602112 C287.03263931 72.81892685 287.03263931 72.81892685 287.05722046 74.51542664 C287.1019023 79.58816277 287.14274685 84.66077062 287.16577148 89.73365784 C287.17907027 92.4032268 287.2095547 95.07097702 287.24780273 97.74049377 C287.30279927 101.6017286 287.32448332 105.46192687 287.33911133 109.32350159 C287.3617807 110.50614594 287.38445007 111.68879028 287.4078064 112.90727234 C287.38867939 120.47420053 286.26494807 126.37130746 281.81567383 132.62818909 C276.59993285 137.56765498 271.15574933 140.91031342 263.81059265 140.83073425 C262.82767746 140.82506943 261.84476227 140.8194046 260.83206177 140.81356812 C259.23199783 140.78875618 259.23199783 140.78875618 257.59960938 140.76344299 C255.9013929 140.74925072 255.9013929 140.74925072 254.16886902 140.73477173 C250.42987846 140.70111664 246.69122102 140.65299425 242.95239258 140.60475159 C240.35879891 140.57858218 237.765196 140.55331536 235.17158508 140.52891541 C229.04468486 140.4690957 222.91794896 140.40017927 216.7911976 140.32684457 C209.8142692 140.24384206 202.83723687 140.17247663 195.86017168 140.10207868 C181.51185419 139.95704523 167.16372517 139.79743019 152.81567383 139.62818909 C153.41508789 139.33170471 154.01450195 139.03522034 154.63208008 138.72975159 C161.01471532 135.50988909 164.68751131 132.00914211 167.81567383 125.62818909 C168.81356943 122.40439323 168.9588464 119.43494513 168.99267578 116.06861877 C169.01192863 114.39602997 169.01192863 114.39602997 169.03157043 112.68965149 C169.03895737 111.48858765 169.0463443 110.2875238 169.05395508 109.05006409 C169.0660627 107.18925201 169.0660627 107.18925201 169.07841492 105.29084778 C169.09224467 102.66486504 169.10297178 100.03886442 169.11083984 97.41285706 C169.11969306 94.73000837 169.14055422 92.04767877 169.17236328 89.36500549 C169.21505861 85.48903307 169.23121267 81.61374255 169.24145508 77.73756409 C169.26771721 75.94811371 169.26771721 75.94811371 169.29450989 74.12251282 C169.27406727 66.24285181 168.36694075 60.74352749 163.06958008 54.60475159 C162.23233398 53.93572815 162.23233398 53.93572815 161.37817383 53.25318909 C160.82258789 52.79170471 160.26700195 52.33022034 159.69458008 51.85475159 C155.70775797 49.25212759 152.05851297 48.3723734 147.33674622 48.22525024 C146.24419116 48.1881491 145.1516361 48.15104795 144.02597332 48.11282253 C142.23541877 48.0683428 142.23541877 48.0683428 140.40869141 48.02296448 C139.13583943 47.98565499 137.86298746 47.94834551 136.55156422 47.90990543 C120.35893809 47.45948418 104.15855541 47.40204626 87.96080756 47.32486606 C83.46993266 47.30255468 78.97908675 47.27539327 74.48823547 47.24880981 C66.03542594 47.19947822 57.5825998 47.15432621 49.12975866 47.11078745 C39.48475224 47.06089622 29.83977495 47.0061756 20.19479692 46.95110786 C0.40178319 46.83820533 -19.39125852 46.73117734 -39.18432617 46.62818909 C-37.72253861 42.11980064 -35.98607277 37.89791152 -33.88354492 33.65553284 C-33.40616631 32.68723289 -33.40616631 32.68723289 -32.91914368 31.69937134 C-32.24806468 30.34278407 -31.57478512 28.98728336 -30.89941406 27.63282776 C-29.87545658 25.57299216 -28.86668372 23.50615986 -27.8581543 21.43873596 C-27.20087311 20.11471018 -26.54269927 18.79112708 -25.88354492 17.46803284 C-25.58751877 16.85644821 -25.29149261 16.24486359 -24.98649597 15.61474609 C-19.78297121 5.31545791 -11.34238453 -0.16382036 0 0 Z " fill="#64332F" transform="translate(156.184326171875,-0.6281890869140625)"/>
<path d="M0 0 C107.91 0 215.82 0 327 0 C319 66 319 66 318 69 C278.65224942 69.02286484 239.3044997 69.04049744 199.95674381 69.05106533 C195.31645875 69.05231611 190.67617371 69.05361042 186.03588867 69.05493164 C185.11205102 69.05519395 184.18821336 69.05545626 183.23638063 69.05572652 C168.25734563 69.06008354 153.27831445 69.06797127 138.29928172 69.0771528 C122.9412786 69.08648844 107.58327749 69.09205542 92.22527164 69.09408849 C82.74065147 69.09546391 73.25604209 69.09981548 63.77142524 69.10791647 C57.27662758 69.11318283 50.78183553 69.11480455 44.28703589 69.11350138 C40.53408577 69.11285782 36.78115457 69.11387744 33.02820778 69.11920547 C28.96915576 69.12492635 24.91014457 69.1230012 20.85108948 69.12025452 C19.0520042 69.12462378 19.0520042 69.12462378 17.21657377 69.12908131 C16.13821349 69.12709026 15.05985321 69.12509921 13.94881535 69.12304783 C12.54138194 69.12361741 12.54138194 69.12361741 11.10551554 69.1241985 C9 69 9 69 8 68 C7.66937559 66.03244861 7.39881065 64.05477556 7.15209961 62.07495117 C6.99200912 60.80660934 6.83191864 59.53826752 6.66697693 58.23149109 C6.49526891 56.83533709 6.32372864 55.43916245 6.15234375 54.04296875 C5.97471621 52.61904657 5.79677945 51.19516293 5.61854553 49.77131653 C5.24520687 46.7813834 4.87480517 43.79110566 4.5065918 40.80053711 C4.03482822 36.96990613 3.55713948 33.14004404 3.07739925 29.31040478 C2.70915486 26.36725063 2.34342581 23.42378836 1.97851753 20.48021889 C1.80331162 19.06836529 1.6274773 17.65658953 1.45100212 16.24489403 C1.20438444 14.26797786 0.96136648 12.29061365 0.71850586 10.31323242 C0.57940292 9.18817795 0.44029999 8.06312347 0.29698181 6.90397644 C0 4 0 4 0 0 Z " fill="#F8DBC8" transform="translate(93,140)"/>
<path d="M0 0 C31.02 0 62.04 0 94 0 C90.55095758 31.04138176 90.55095758 31.04138176 88.82348633 44.75268555 C88.62584272 46.33298281 88.42836432 47.91330075 88.23103333 49.49363708 C87.70808516 53.67806316 87.18290436 57.86220597 86.65723634 62.04629111 C86.10335468 66.45824652 85.55164568 70.87047367 84.99967957 75.28266907 C83.96004213 83.59054323 82.9185273 91.89818083 81.87629098 100.20572931 C80.46384438 111.46509526 79.05439312 122.72483616 77.64474964 133.98455334 C75.43223717 151.6566708 73.21580524 169.32829437 71 187 C39.98 187 8.96 187 -23 187 C-19.55095758 155.95861824 -19.55095758 155.95861824 -17.82348633 142.24731445 C-17.62584272 140.66701719 -17.42836432 139.08669925 -17.23103333 137.50636292 C-16.70808516 133.32193684 -16.18290436 129.13779403 -15.65723634 124.95370889 C-15.10335468 120.54175348 -14.55164568 116.12952633 -13.99967957 111.71733093 C-12.96004213 103.40945677 -11.9185273 95.10181917 -10.87629098 86.79427069 C-9.46384438 75.53490474 -8.05439312 64.27516384 -6.64474964 53.01544666 C-4.43223717 35.3433292 -2.21580524 17.67170563 0 0 Z " fill="#AA644A" transform="translate(326,209)"/>
<path d="M0 0 C14.70825168 -0.0936276 29.41646368 -0.16406914 44.12495327 -0.20724869 C50.95506721 -0.22783465 57.78499549 -0.25587867 64.61499023 -0.30175781 C71.20910781 -0.34603121 77.80308355 -0.36915339 84.39735603 -0.37950897 C86.91029962 -0.38688673 89.42323293 -0.40129373 91.93609428 -0.42292023 C95.46210195 -0.45205306 98.98731863 -0.45595171 102.51342773 -0.45410156 C103.54705444 -0.46848267 104.58068115 -0.48286377 105.64562988 -0.49768066 C113.56942281 -0.45283621 119.69373782 1.20804527 125.8125 6.375 C130.90441248 12.48529497 133.08882489 16.65136329 133.19287109 24.52783203 C133.20893402 25.63643585 133.22499695 26.74503967 133.24154663 27.88723755 C133.28622847 32.95997369 133.32707302 38.03258154 133.35009766 43.10546875 C133.36339644 45.77503771 133.39388087 48.44278793 133.43212891 51.11230469 C133.48712544 54.97353951 133.50880949 58.83373778 133.5234375 62.6953125 C133.54610687 63.87795685 133.56877625 65.0606012 133.59213257 66.27908325 C133.57300556 73.84601144 132.44927424 79.74311838 128 86 C122.78425903 90.93946589 117.3400755 94.28212433 109.99491882 94.20254517 C108.52054604 94.19404793 108.52054604 94.19404793 107.01638794 94.18537903 C105.94967865 94.16883774 104.88296936 94.15229645 103.78393555 94.13525391 C102.65179123 94.12579239 101.51964691 94.11633087 100.35319519 94.10658264 C96.61420463 94.07292755 92.87554719 94.02480516 89.13671875 93.9765625 C86.54312509 93.9503931 83.94952217 93.92512627 81.35591125 93.90072632 C75.22901104 93.84090662 69.10227514 93.77199018 62.97552377 93.69865549 C55.99859537 93.61565298 49.02156304 93.54428755 42.04449785 93.47388959 C27.69618036 93.32885614 13.34805134 93.1692411 -1 93 C-0.40058594 92.70351562 0.19882812 92.40703125 0.81640625 92.1015625 C7.19904149 88.8817 10.87183748 85.38095302 14 79 C14.99789561 75.77620414 15.14317257 72.80675605 15.17700195 69.44042969 C15.18983719 68.32537048 15.20267242 67.21031128 15.21589661 66.0614624 C15.22328354 64.86039856 15.23067047 63.65933472 15.23828125 62.421875 C15.246353 61.18133362 15.25442474 59.94079224 15.26274109 58.66265869 C15.27657084 56.03667596 15.28729795 53.41067533 15.29516602 50.78466797 C15.30401923 48.10181928 15.32488039 45.41948968 15.35668945 42.73681641 C15.39938478 38.86084399 15.41553884 34.98555346 15.42578125 31.109375 C15.44328934 29.91640808 15.46079742 28.72344116 15.47883606 27.49432373 C15.45839344 19.61466273 14.55126692 14.1153384 9.25390625 7.9765625 C5.9728382 5.35473907 3.08955458 3.23925896 -1 2 C-0.67 1.34 -0.34 0.68 0 0 Z " fill="#653430" transform="translate(310,46)"/>
<path d="M0 0 C1.80162598 0.02755371 1.80162598 0.02755371 3.63964844 0.05566406 C6.18069674 0.09975892 8.72158434 0.15417452 11.26220703 0.21826172 C15.23608335 0.31366639 19.20886939 0.36402322 23.18359375 0.41015625 C25.7682767 0.45845758 28.35291598 0.50916705 30.9375 0.5625 C32.1438208 0.57627686 33.3501416 0.59005371 34.59301758 0.60424805 C43.02928445 0.84576131 48.48235595 2.10137516 55 7.75 C59.74292897 13.30600251 61.2851143 17.62923589 61.38037109 24.84033203 C61.39643402 25.94893585 61.41249695 27.05753967 61.42904663 28.19973755 C61.47372847 33.27247369 61.51457302 38.34508154 61.53759766 43.41796875 C61.55089644 46.08753771 61.58138087 48.75528793 61.61962891 51.42480469 C61.67462544 55.28603951 61.69630949 59.14623778 61.7109375 63.0078125 C61.73360687 64.19045685 61.75627625 65.3731012 61.77963257 66.59158325 C61.76090869 73.99902554 60.95427389 80.39268036 56.1875 86.3125 C53.5475 88.2925 50.9075 90.2725 48.1875 92.3125 C99.6675 92.6425 151.1475 92.9725 204.1875 93.3125 C204.1875 93.6425 204.1875 93.9725 204.1875 94.3125 C175.93658906 94.4293518 147.68571438 94.51749743 119.43461037 94.57156086 C106.31683901 94.59733176 93.19921789 94.63246133 80.08154297 94.68969727 C68.646884 94.73956593 57.21233386 94.77179911 45.77756917 94.78294247 C39.72407964 94.78945526 33.67090142 94.80473964 27.61751175 94.84115028 C21.91625605 94.87516406 16.21543902 94.88554188 10.51409149 94.87803841 C8.42516824 94.87941052 6.33622987 94.88931056 4.24739456 94.90852737 C-17.71999085 95.10065784 -17.71999085 95.10065784 -25.72208214 87.49831104 C-30.26435281 82.68359521 -32.05702674 78.08381393 -32.0871582 71.43994141 C-32.09669022 70.28168854 -32.10622223 69.12343567 -32.11604309 67.93008423 C-32.11513168 66.68729706 -32.11422028 65.44450989 -32.11328125 64.1640625 C-32.11756638 62.8781723 -32.1218515 61.5922821 -32.12626648 60.26742554 C-32.1337129 57.54900991 -32.13344932 54.83072419 -32.12817383 52.11230469 C-32.12238644 48.64342629 -32.13929943 45.1750831 -32.1625185 41.70629311 C-32.18087059 38.37969467 -32.17706898 35.05321118 -32.17578125 31.7265625 C-32.184991 30.48782379 -32.19420074 29.24908508 -32.20368958 27.97280884 C-32.15631463 19.1154173 -30.96266903 12.63348429 -24.7253418 6.00463867 C-17.72923636 -0.18425817 -8.84888915 -0.23306335 0 0 Z " fill="#7C534F" transform="translate(101.8125,45.6875)"/>
<path d="M0 0 C23.43 0 46.86 0 71 0 C69.7625 10.250625 68.525 20.50125 67.25 31.0625 C66.86875977 34.22593994 66.48751953 37.38937988 66.09472656 40.64868164 C65.33744788 46.92533477 64.56903022 53.20055848 63.79548264 59.47522259 C63.25871118 63.84321747 62.73985508 68.21291336 62.23445511 72.58464527 C61.90584897 75.40724291 61.56609958 78.22843213 61.22411346 81.04943657 C60.99250792 82.99043479 60.77483739 84.93308015 60.55767822 86.87574768 C59.50635298 95.43631575 58.25307383 105.30449598 51.0625 111 C50.41410156 111.53625 49.76570313 112.0725 49.09765625 112.625 C44.39743027 115.70596749 40.50096034 116.24689506 34.91479492 116.22705078 C34.22156128 116.22734283 33.52832764 116.22763489 32.81408691 116.22793579 C30.53608426 116.22654897 28.25841385 116.21101867 25.98046875 116.1953125 C24.3957792 116.19158006 22.81108734 116.18873418 21.22639465 116.18673706 C17.06545587 116.17911877 12.90465779 116.15948588 8.74377441 116.1373291 C4.49391584 116.11683172 0.24403443 116.10772703 -4.00585938 116.09765625 C-12.33730399 116.0762382 -20.66863447 116.04212416 -29 116 C-27 114 -27 114 -24.25 112.8125 C-17.70534054 109.16259376 -14.97149671 104.48042577 -12.70894432 97.52328682 C-11.57305391 93.48040614 -11.05115027 89.42069485 -10.55786133 85.25756836 C-10.4403804 84.32966492 -10.32289948 83.40176147 -10.20185852 82.44573975 C-9.81986756 79.41145759 -9.45085346 76.37575219 -9.08203125 73.33984375 C-8.81807932 71.2226831 -8.55331163 69.10562401 -8.2877655 66.98866272 C-7.59412903 61.44130328 -6.91152252 55.89264135 -6.23126221 50.34362793 C-5.41112006 43.67275594 -4.57718551 37.00359564 -3.74558258 30.33414459 C-2.4865268 20.22402999 -1.24492867 10.11190903 0 0 Z " fill="#F6CBAF" transform="translate(317,396)"/>
<path d="M0 0 C30.03 0 60.06 0 91 0 C89.700625 10.828125 88.40125 21.65625 87.0625 32.8125 C86.65394775 36.23085205 86.24539551 39.6492041 85.82446289 43.17114258 C85.49910964 45.87063549 85.1735235 48.57010034 84.84765625 51.26953125 C84.7642247 51.97156174 84.68079315 52.67359222 84.59483337 53.39689636 C84.34877985 55.46523827 84.09878043 57.53306882 83.84790039 59.60083008 C83.70800186 60.76665115 83.56810333 61.93247223 83.42396545 63.13362122 C83 66 83 66 82 69 C58.9 69 35.8 69 12 69 C12.62575926 60.23937037 13.3620483 51.72521904 14.5625 43.0625 C17.65627801 25.25401148 17.65627801 25.25401148 12 9 C12 8.34 12 7.68 12 7 C11.42765625 6.71382812 10.8553125 6.42765625 10.265625 6.1328125 C6.84375 4.421875 3.421875 2.7109375 0 1 C0 0.67 0 0.34 0 0 Z " fill="#F6CBAF" transform="translate(329,140)"/>
<path d="M0 0 C5.49072862 3.28287775 10.11859392 7.90315665 12.06607056 14.11935425 C12.58218484 16.72787474 12.65773574 19.18052776 12.69287109 21.84033203 C12.70893402 22.94893585 12.72499695 24.05753967 12.74154663 25.19973755 C12.78622847 30.27247369 12.82707302 35.34508154 12.85009766 40.41796875 C12.86339644 43.08753771 12.89388087 45.75528793 12.93212891 48.42480469 C12.98712544 52.28603951 13.00880949 56.14623778 13.0234375 60.0078125 C13.04610687 61.19045685 13.06877625 62.3731012 13.09213257 63.59158325 C13.07340869 70.99902554 12.26677389 77.39268036 7.5 83.3125 C4.86 85.2925 2.22 87.2725 -0.5 89.3125 C50.98 89.6425 102.46 89.9725 155.5 90.3125 C155.5 90.6425 155.5 90.9725 155.5 91.3125 C85.21 91.3125 14.92 91.3125 -57.5 91.3125 C-57.5 90.9825 -57.5 90.6525 -57.5 90.3125 C-45.29 89.9825 -33.08 89.6525 -20.5 89.3125 C-23.14 87.3325 -25.78 85.3525 -28.5 83.3125 C-34.09476568 76.35879292 -34.22428887 68.50499411 -34.12890625 59.9296875 C-34.13131821 58.67543976 -34.13373016 57.42119202 -34.13621521 56.12893677 C-34.13499243 52.82067123 -34.11009958 49.51362143 -34.07647705 46.20556641 C-34.0578509 43.51624283 -34.07263157 40.82752587 -34.0875864 38.1382122 C-34.10076195 34.90195025 -34.08242435 31.66591674 -34.06640625 28.4296875 C-34.07136612 27.23366913 -34.07632599 26.03765076 -34.08143616 24.8053894 C-33.96366608 16.41439294 -32.69548899 11.11254096 -27.1875 4.5625 C-19.19595679 -2.12809432 -10.01034799 -4.65376709 0 0 Z " fill="#94716E" transform="translate(150.5,48.6875)"/>
<path d="M0 0 C10.29246099 -0.09286336 20.58482157 -0.16384779 30.87761688 -0.20724869 C35.65749457 -0.22808372 40.43708467 -0.2563264 45.21679688 -0.30175781 C49.833367 -0.34536171 54.44966128 -0.36916781 59.06642151 -0.37950897 C60.82382039 -0.38687431 62.58120493 -0.40125706 64.33848572 -0.42292023 C66.80866594 -0.45214838 69.27772033 -0.45594804 71.74804688 -0.45410156 C72.82699219 -0.47567322 72.82699219 -0.47567322 73.92773438 -0.49768066 C80.18396683 -0.44739651 85.09387419 1.74394254 90.01586914 5.56494141 C95.40483658 11.71163361 98.81779204 18.86424287 102.36401367 26.16552734 C103.44808228 28.39678068 104.54959981 30.61874164 105.65429688 32.83984375 C106.35257371 34.25470972 107.04987611 35.67005712 107.74609375 37.0859375 C108.07411484 37.75047943 108.40213593 38.41502136 108.74009705 39.09970093 C111 43.76535388 111 43.76535388 111 46 C74.7 46 38.4 46 1 46 C2.95702015 44.6953199 4.93582457 43.42257633 6.9375 42.1875 C12.0207026 38.556641 15.34686025 34.0693845 17 28 C18.17886919 20.38860544 16.44092793 14.26627174 12 8 C8.52805034 4.62295557 4.59084504 2.53028168 0 1 C0 0.67 0 0.34 0 0 Z " fill="#3E190C" transform="translate(285,0)"/>
</svg>
